<svg width="118" height="15" viewBox="0 0 118 15" fill="none" xmlns="http://www.w3.org/2000/svg">
<path d="M5.76502 14.0105C4.73262 14.0105 3.71392 13.8277 2.71806 13.476C1.7222 13.1197 0.817701 12.5715 0 11.836L1.76331 9.72096C2.38458 10.2235 3.01956 10.6255 3.6728 10.9224C4.32605 11.2193 5.04325 11.3655 5.81984 11.3655C6.44111 11.3655 6.92077 11.2559 7.26338 11.0275C7.60599 10.799 7.77501 10.4884 7.77501 10.0864V10.0453C7.77501 9.85343 7.74304 9.67984 7.66995 9.53366C7.60142 9.38291 7.46438 9.24586 7.25881 9.11796C7.05781 8.99005 6.77915 8.85757 6.42284 8.72967C6.06652 8.60176 5.60514 8.46471 5.03412 8.3231C4.34432 8.15408 3.72305 7.96678 3.16574 7.75664C2.60842 7.54651 2.13333 7.29526 1.74504 6.9892C1.35218 6.6877 1.05068 6.30854 0.840542 5.85629C0.630407 5.40404 0.520771 4.84215 0.520771 4.17063V4.12952C0.520771 3.51282 0.634975 2.95094 0.867951 2.45301C1.10093 1.95508 1.4207 1.52567 1.84097 1.16479C2.26124 0.803902 2.75917 0.525243 3.33933 0.328812C3.91948 0.136949 4.55903 0.0410156 5.25339 0.0410156C6.24925 0.0410156 7.16288 0.187195 7.99885 0.488694C8.83026 0.785624 9.59771 1.21047 10.2966 1.76778L8.74346 4.01989C8.1359 3.60419 7.54204 3.27985 6.95731 3.0423C6.37259 2.80019 5.79243 2.68141 5.21227 2.68141C4.63212 2.68141 4.19357 2.79562 3.90578 3.01946C3.61342 3.24787 3.46724 3.52652 3.46724 3.86457V3.90569C3.46724 4.12496 3.50835 4.31682 3.59514 4.47671C3.67737 4.63659 3.82812 4.78277 4.05196 4.91068C4.2758 5.04316 4.5773 5.1665 4.95646 5.2807C5.34018 5.39947 5.81984 5.53195 6.40457 5.68727C7.09436 5.86999 7.70649 6.07099 8.24097 6.2994C8.78001 6.52781 9.23226 6.79733 9.60228 7.1171C9.9723 7.43231 10.251 7.80689 10.4383 8.23173C10.6255 8.65657 10.7215 9.16821 10.7215 9.76207V9.79861C10.7215 10.4701 10.5981 11.0686 10.356 11.5939C10.1093 12.1192 9.7713 12.5578 9.33276 12.9141C8.89878 13.2704 8.37344 13.5445 7.77045 13.7272C7.17658 13.9145 6.5005 14.0105 5.76502 14.0105Z" fill="#161613"/>
<path d="M22.8773 14.0286C21.0546 14.0286 19.6202 13.5215 18.5695 12.5165C17.5234 11.507 16.998 9.99947 16.998 7.99862V0.237305H19.9856V7.92096C19.9856 9.03559 20.246 9.87157 20.7622 10.4334C21.2784 10.9953 21.9956 11.274 22.9184 11.274C23.8366 11.274 24.5538 11.0045 25.07 10.4609C25.5862 9.91725 25.8466 9.10412 25.8466 8.01689V0.237305H28.8342V7.89812C28.8342 8.93052 28.6925 9.83045 28.4185 10.5933C28.1398 11.3562 27.7424 11.9958 27.2216 12.5028C26.7054 13.0145 26.0796 13.3936 25.3395 13.6494C24.604 13.9053 23.7818 14.0286 22.8773 14.0286Z" fill="#161613"/>
<path d="M41.776 6.82917C42.5115 6.82917 43.078 6.65558 43.4754 6.3084C43.8683 5.96122 44.0647 5.49527 44.0647 4.91054V4.87399C44.0647 4.22988 43.8591 3.74109 43.4434 3.42132C43.0277 3.09698 42.4521 2.93709 41.7167 2.93709H38.7473V6.83831H41.776V6.82917ZM35.7598 0.237305H41.9679C43.6901 0.237305 45.0103 0.694123 45.9285 1.61689C46.7051 2.39348 47.0934 3.43046 47.0934 4.71868V4.75523C47.0934 5.85615 46.8239 6.75151 46.2848 7.4413C45.7503 8.13109 45.0468 8.64273 44.1789 8.9625L47.4954 13.8139H44.0007L41.0908 9.46957H41.0543H38.7473V13.8139H35.7598V0.237305Z" fill="#161613"/>
<path d="M53.667 0.237305H64.0093V2.93253H56.6546V5.86072H63.1368V8.55593H56.6546V13.8139H53.667V0.237305Z" fill="#161613"/>
<path d="M78.0741 8.131L76.2696 3.7273L74.4652 8.131H78.0741ZM74.9312 0.136719H77.6858L83.5056 13.8138H80.381L79.1384 10.7714H73.3963L72.1583 13.8138H69.1113L74.9312 0.136719Z" fill="#161613"/>
<path d="M95.8444 14.0471C94.8485 14.0471 93.9212 13.8644 93.0669 13.5035C92.2127 13.1426 91.4772 12.6492 90.8559 12.0188C90.2347 11.393 89.7504 10.6484 89.4033 9.79871C89.0561 8.94446 88.8779 8.03083 88.8779 7.06238V7.02127C88.8779 6.05281 89.0515 5.14375 89.4033 4.29864C89.755 3.44897 90.2392 2.70892 90.8559 2.06481C91.4772 1.42526 92.2218 0.922765 93.0852 0.552744C93.9532 0.187291 94.9079 0 95.9586 0C96.5936 0 97.1737 0.0502481 97.6945 0.155316C98.2198 0.260384 98.6949 0.401993 99.1243 0.580152C99.5492 0.762878 99.9466 0.982151 100.307 1.23797C100.668 1.49835 101.002 1.78158 101.312 2.09222L99.4121 4.28493C98.8822 3.80528 98.3432 3.43069 97.7904 3.16117C97.2422 2.88708 96.6255 2.7546 95.9403 2.7546C95.3693 2.7546 94.844 2.86424 94.3597 3.08351C93.8709 3.30278 93.4552 3.60885 93.108 3.99714C92.7609 4.38544 92.4868 4.83312 92.2903 5.34475C92.0985 5.85638 92.0026 6.40456 92.0026 6.98472V7.02127C92.0026 7.60599 92.1031 8.15417 92.2903 8.67037C92.4822 9.18658 92.7517 9.63882 93.0943 10.0271C93.437 10.4154 93.8481 10.7215 94.3369 10.9499C94.8211 11.1783 95.3556 11.2879 95.9403 11.2879C96.7169 11.2879 97.3701 11.1463 97.9092 10.8631C98.4437 10.5753 98.9781 10.1916 99.5126 9.69821L101.413 11.6168C101.066 11.9914 100.705 12.3295 100.326 12.6264C99.9512 12.9233 99.54 13.1791 99.0923 13.3939C98.6447 13.6086 98.1604 13.7684 97.626 13.8827C97.0961 13.9923 96.5022 14.0471 95.8444 14.0471Z" fill="#161613"/>
<path d="M107.681 0.237305H117.904V2.89141H110.627V5.64602H117.027V8.30468H110.627V11.1598H118V13.8139H107.681V0.237305Z" fill="#161613"/>
</svg>
